{
	"asset":{
		"generator":"Khronos glTF Blender I/O v5.0.21",
		"version":"2.0"
	},
	"scene":0,
	"scenes":[
		{
			"name":"Scene",
			"nodes":[
				0
			]
		}
	],
	"nodes":[
		{
			"mesh":0,
			"name":"disc"
		}
	],
	"meshes":[
		{
			"name":"disc",
			"primitives":[
				{
					"attributes":{
						"POSITION":0
					},
					"indices":1
				}
			]
		}
	],
	"accessors":[
		{
			"bufferView":0,
			"componentType":5126,
			"count":20,
			"max":[
				7.524003109438127e-08,
				0.9965845346450806,
				0.9863613247871399
			],
			"min":[
				-7.524003819980862e-08,
				-0.996584415435791,
				-1
			],
			"type":"VEC3"
		},
		{
			"bufferView":1,
			"componentType":5123,
			"count":57,
			"type":"SCALAR"
		}
	],
	"bufferViews":[
		{
			"buffer":0,
			"byteLength":240,
			"byteOffset":0,
			"target":34962
		},
		{
			"buffer":0,
			"byteLength":114,
			"byteOffset":240,
			"target":34963
		}
	],
	"buffers":[
		{
			"byteLength":356,
			"uri":"disc.bin"
		}
	]
}
