{
	"asset":{
		"generator":"Khronos glTF Blender I/O v5.0.21",
		"version":"2.0"
	},
	"scene":0,
	"scenes":[
		{
			"name":"Scene",
			"nodes":[
				0
			]
		}
	],
	"nodes":[
		{
			"mesh":0,
			"name":"sphere",
			"rotation":[
				0,
				0,
				-0.7071068286895752,
				0.7071068286895752
			]
		}
	],
	"meshes":[
		{
			"name":"sphere",
			"primitives":[
				{
					"attributes":{
						"POSITION":0
					},
					"indices":1
				}
			]
		}
	],
	"accessors":[
		{
			"bufferView":0,
			"componentType":5126,
			"count":162,
			"max":[
				1,
				1,
				0.9999999403953552
			],
			"min":[
				-1,
				-0.9999999403953552,
				-0.9999999403953552
			],
			"type":"VEC3"
		},
		{
			"bufferView":1,
			"componentType":5123,
			"count":960,
			"type":"SCALAR"
		}
	],
	"bufferViews":[
		{
			"buffer":0,
			"byteLength":1944,
			"byteOffset":0,
			"target":34962
		},
		{
			"buffer":0,
			"byteLength":1920,
			"byteOffset":1944,
			"target":34963
		}
	],
	"buffers":[
		{
			"byteLength":3864,
			"uri":"sphere.bin"
		}
	]
}
