{
	"asset":{
		"generator":"Khronos glTF Blender I/O v5.0.21",
		"version":"2.0"
	},
	"extensionsUsed":[
		"KHR_materials_emissive_strength"
	],
	"scene":0,
	"scenes":[
		{
			"name":"Scene",
			"nodes":[
				0,
				1,
				2,
				3,
				4,
				5,
				6,
				7,
				8,
				9,
				10,
				11
			]
		}
	],
	"nodes":[
		{
			"mesh":0,
			"name":"pillar1"
		},
		{
			"mesh":1,
			"name":"pillar4"
		},
		{
			"mesh":2,
			"name":"pillar3"
		},
		{
			"mesh":3,
			"name":"pillar2"
		},
		{
			"mesh":4,
			"name":"axes-3d"
		},
		{
			"mesh":5,
			"name":"measure-sticks"
		},
		{
			"mesh":6,
			"name":"plinth"
		},
		{
			"mesh":7,
			"name":"pillar3.001"
		},
		{
			"mesh":8,
			"name":"pillar2.001"
		},
		{
			"mesh":9,
			"name":"dome"
		},
		{
			"mesh":10,
			"name":"Cube"
		},
		{
			"mesh":11,
			"name":"Cube.003"
		}
	],
	"materials":[
		{
			"doubleSided":true,
			"name":"pillar",
			"pbrMetallicRoughness":{
				"baseColorTexture":{
					"index":0
				},
				"metallicFactor":0,
				"roughnessFactor":0.8684210777282715
			}
		},
		{
			"doubleSided":true,
			"name":"axes",
			"pbrMetallicRoughness":{
				"baseColorFactor":[
					0.13074398040771484,
					0.8003076910972595,
					0.07355914264917374,
					1
				],
				"metallicFactor":0,
				"roughnessFactor":0.5
			}
		},
		{
			"doubleSided":true,
			"name":"X",
			"pbrMetallicRoughness":{
				"baseColorFactor":[
					1,
					0.10000000149011612,
					0.10000000149011612,
					1
				],
				"metallicFactor":0,
				"roughnessFactor":0.5
			}
		},
		{
			"doubleSided":true,
			"name":"Z",
			"pbrMetallicRoughness":{
				"baseColorFactor":[
					0,
					0.2698128819465637,
					1,
					1
				],
				"metallicFactor":0,
				"roughnessFactor":0.5
			}
		},
		{
			"doubleSided":true,
			"emissiveFactor":[
				1,
				1,
				1
			],
			"extensions":{
				"KHR_materials_emissive_strength":{
					"emissiveStrength":20
				}
			},
			"name":"measure-stick",
			"pbrMetallicRoughness":{
				"baseColorFactor":[
					0.8010088205337524,
					0.7942564487457275,
					0.23605450987815857,
					1
				],
				"metallicFactor":0,
				"roughnessFactor":0.5
			}
		},
		{
			"doubleSided":true,
			"name":"Material",
			"pbrMetallicRoughness":{
				"baseColorFactor":[
					0.12219242751598358,
					0.15479815006256104,
					0.08340628445148468,
					1
				],
				"metallicFactor":0.41420117020606995,
				"roughnessFactor":0.3047337532043457
			}
		},
		{
			"doubleSided":true,
			"name":"Material.001",
			"pbrMetallicRoughness":{
				"baseColorFactor":[
					0.1639307290315628,
					0.03725720942020416,
					0.20973323285579681,
					1
				],
				"metallicFactor":0
			}
		},
		{
			"doubleSided":true,
			"name":"walls",
			"normalTexture":{
				"index":1
			},
			"pbrMetallicRoughness":{
				"baseColorTexture":{
					"index":2
				},
				"metallicFactor":0,
				"metallicRoughnessTexture":{
					"index":3
				}
			}
		}
	],
	"meshes":[
		{
			"name":"Cylinder",
			"primitives":[
				{
					"attributes":{
						"POSITION":0,
						"NORMAL":1,
						"TEXCOORD_0":2,
						"TANGENT":3
					},
					"indices":4,
					"material":0
				}
			]
		},
		{
			"name":"Cylinder.003",
			"primitives":[
				{
					"attributes":{
						"POSITION":5,
						"NORMAL":6,
						"TEXCOORD_0":7,
						"TANGENT":8
					},
					"indices":9,
					"material":0
				}
			]
		},
		{
			"name":"Cylinder.002",
			"primitives":[
				{
					"attributes":{
						"POSITION":10,
						"NORMAL":11,
						"TEXCOORD_0":12,
						"TANGENT":13
					},
					"indices":9,
					"material":0
				}
			]
		},
		{
			"name":"Cylinder.001",
			"primitives":[
				{
					"attributes":{
						"POSITION":14,
						"NORMAL":15,
						"TEXCOORD_0":16,
						"TANGENT":17
					},
					"indices":9,
					"material":0
				}
			]
		},
		{
			"name":"axes",
			"primitives":[
				{
					"attributes":{
						"POSITION":18,
						"NORMAL":19,
						"TEXCOORD_0":20,
						"TANGENT":21
					},
					"indices":22,
					"material":1
				},
				{
					"attributes":{
						"POSITION":23,
						"NORMAL":24,
						"TEXCOORD_0":25,
						"TANGENT":26
					},
					"indices":27,
					"material":2
				},
				{
					"attributes":{
						"POSITION":28,
						"NORMAL":29,
						"TEXCOORD_0":30,
						"TANGENT":31
					},
					"indices":32,
					"material":3
				}
			]
		},
		{
			"name":"measure-sticks",
			"primitives":[
				{
					"attributes":{
						"POSITION":33,
						"NORMAL":34,
						"TEXCOORD_0":35,
						"TANGENT":36
					},
					"indices":37,
					"material":4
				}
			]
		},
		{
			"name":"Cube.003",
			"primitives":[
				{
					"attributes":{
						"POSITION":38,
						"NORMAL":39,
						"TEXCOORD_0":40,
						"TANGENT":41
					},
					"indices":42,
					"material":0
				}
			]
		},
		{
			"name":"Cylinder.004",
			"primitives":[
				{
					"attributes":{
						"POSITION":43,
						"NORMAL":44,
						"TEXCOORD_0":45,
						"TANGENT":46
					},
					"indices":9,
					"material":0
				}
			]
		},
		{
			"name":"Cylinder.005",
			"primitives":[
				{
					"attributes":{
						"POSITION":47,
						"NORMAL":48,
						"TEXCOORD_0":49,
						"TANGENT":50
					},
					"indices":9,
					"material":0
				}
			]
		},
		{
			"name":"dome",
			"primitives":[
				{
					"attributes":{
						"POSITION":51,
						"NORMAL":52,
						"TEXCOORD_0":53,
						"TANGENT":54
					},
					"indices":55,
					"material":5
				}
			]
		},
		{
			"name":"Cube.001",
			"primitives":[
				{
					"attributes":{
						"POSITION":56,
						"NORMAL":57,
						"TEXCOORD_0":58,
						"TANGENT":59
					},
					"indices":60,
					"material":6
				}
			]
		},
		{
			"name":"Cube.005",
			"primitives":[
				{
					"attributes":{
						"POSITION":61,
						"NORMAL":62,
						"TEXCOORD_0":63,
						"TANGENT":64
					},
					"indices":65,
					"material":7
				}
			]
		}
	],
	"textures":[
		{
			"sampler":0,
			"source":0
		},
		{
			"sampler":0,
			"source":1
		},
		{
			"sampler":0,
			"source":2
		},
		{
			"sampler":0,
			"source":3
		}
	],
	"images":[
		{
			"mimeType":"image/png",
			"name":"bricks.png",
			"uri":"../../textures/bricks.png"
		},
		{
			"mimeType":"image/png",
			"name":"rocks-1k-normal.png",
			"uri":"../../../../strain/SOURCE-TEXTURES/rocks-1k-normal.png"
		},
		{
			"mimeType":"image/png",
			"name":"rocks-1k-diffuse.png",
			"uri":"../../../../strain/SOURCE-TEXTURES/rocks-1k-diffuse.png"
		},
		{
			"mimeType":"image/png",
			"name":"rocks-1k-specular.png",
			"uri":"../../../../strain/SOURCE-TEXTURES/rocks-1k-specular.png"
		}
	],
	"accessors":[
		{
			"bufferView":0,
			"componentType":5126,
			"count":1155,
			"max":[
				0.8336291313171387,
				5.073637008666992,
				15.067896842956543
			],
			"min":[
				-6.29005241394043,
				5.960464477539063e-08,
				8.70994758605957
			],
			"type":"VEC3"
		},
		{
			"bufferView":1,
			"componentType":5126,
			"count":1155,
			"type":"VEC3"
		},
		{
			"bufferView":2,
			"componentType":5126,
			"count":1155,
			"type":"VEC2"
		},
		{
			"bufferView":3,
			"componentType":5126,
			"count":1155,
			"type":"VEC4"
		},
		{
			"bufferView":4,
			"componentType":5123,
			"count":6006,
			"type":"SCALAR"
		},
		{
			"bufferView":5,
			"componentType":5126,
			"count":165,
			"max":[
				-5.7099480628967285,
				5.073637008666992,
				-8.70994758605957
			],
			"min":[
				-6.29005241394043,
				-2.384185791015625e-07,
				-9.29005241394043
			],
			"type":"VEC3"
		},
		{
			"bufferView":6,
			"componentType":5126,
			"count":165,
			"type":"VEC3"
		},
		{
			"bufferView":7,
			"componentType":5126,
			"count":165,
			"type":"VEC2"
		},
		{
			"bufferView":8,
			"componentType":5126,
			"count":165,
			"type":"VEC4"
		},
		{
			"bufferView":9,
			"componentType":5123,
			"count":858,
			"type":"SCALAR"
		},
		{
			"bufferView":10,
			"componentType":5126,
			"count":165,
			"max":[
				6.2900519371032715,
				5.073637008666992,
				9.290051460266113
			],
			"min":[
				5.70994758605957,
				0,
				8.709946632385254
			],
			"type":"VEC3"
		},
		{
			"bufferView":11,
			"componentType":5126,
			"count":165,
			"type":"VEC3"
		},
		{
			"bufferView":12,
			"componentType":5126,
			"count":165,
			"type":"VEC2"
		},
		{
			"bufferView":13,
			"componentType":5126,
			"count":165,
			"type":"VEC4"
		},
		{
			"bufferView":14,
			"componentType":5126,
			"count":165,
			"max":[
				6.2900519371032715,
				5.073637008666992,
				-8.70994758605957
			],
			"min":[
				5.70994758605957,
				0,
				-9.29005241394043
			],
			"type":"VEC3"
		},
		{
			"bufferView":15,
			"componentType":5126,
			"count":165,
			"type":"VEC3"
		},
		{
			"bufferView":16,
			"componentType":5126,
			"count":165,
			"type":"VEC2"
		},
		{
			"bufferView":17,
			"componentType":5126,
			"count":165,
			"type":"VEC4"
		},
		{
			"bufferView":18,
			"componentType":5126,
			"count":625,
			"max":[
				6.60926628112793,
				4.954402923583984,
				3.200601100921631
			],
			"min":[
				2.9768903255462646,
				0.5111232399940491,
				-0.08322744071483612
			],
			"type":"VEC3"
		},
		{
			"bufferView":19,
			"componentType":5126,
			"count":625,
			"type":"VEC3"
		},
		{
			"bufferView":20,
			"componentType":5126,
			"count":625,
			"type":"VEC2"
		},
		{
			"bufferView":21,
			"componentType":5126,
			"count":625,
			"type":"VEC4"
		},
		{
			"bufferView":22,
			"componentType":5123,
			"count":2880,
			"type":"SCALAR"
		},
		{
			"bufferView":23,
			"componentType":5126,
			"count":250,
			"max":[
				7.925329685211182,
				1.0338404178619385,
				0.08322744071483612
			],
			"min":[
				7.046379566192627,
				0.15489137172698975,
				-0.08322744071483612
			],
			"type":"VEC3"
		},
		{
			"bufferView":24,
			"componentType":5126,
			"count":250,
			"type":"VEC3"
		},
		{
			"bufferView":25,
			"componentType":5126,
			"count":250,
			"type":"VEC2"
		},
		{
			"bufferView":26,
			"componentType":5126,
			"count":250,
			"type":"VEC4"
		},
		{
			"bufferView":27,
			"componentType":5123,
			"count":1152,
			"type":"SCALAR"
		},
		{
			"bufferView":28,
			"componentType":5126,
			"count":375,
			"max":[
				4.074501037597656,
				0.6775935292243958,
				4.831238269805908
			],
			"min":[
				3.1079351902008057,
				0.5111384391784668,
				3.6498661041259766
			],
			"type":"VEC3"
		},
		{
			"bufferView":29,
			"componentType":5126,
			"count":375,
			"type":"VEC3"
		},
		{
			"bufferView":30,
			"componentType":5126,
			"count":375,
			"type":"VEC2"
		},
		{
			"bufferView":31,
			"componentType":5126,
			"count":375,
			"type":"VEC4"
		},
		{
			"bufferView":32,
			"componentType":5123,
			"count":1728,
			"type":"SCALAR"
		},
		{
			"bufferView":33,
			"componentType":5126,
			"count":264,
			"max":[
				0.10000002384185791,
				2.206502914428711,
				3.5590429306030273
			],
			"min":[
				-20.10000228881836,
				5.364418029785156e-07,
				-3.5590429306030273
			],
			"type":"VEC3"
		},
		{
			"bufferView":34,
			"componentType":5126,
			"count":264,
			"type":"VEC3"
		},
		{
			"bufferView":35,
			"componentType":5126,
			"count":264,
			"type":"VEC2"
		},
		{
			"bufferView":36,
			"componentType":5126,
			"count":264,
			"type":"VEC4"
		},
		{
			"bufferView":37,
			"componentType":5123,
			"count":396,
			"type":"SCALAR"
		},
		{
			"bufferView":38,
			"componentType":5126,
			"count":76,
			"max":[
				1.2193634510040283,
				2.007744312286377,
				4.730043411254883
			],
			"min":[
				-1.2193634510040283,
				-1.1920928955078125e-07,
				-4.730043411254883
			],
			"type":"VEC3"
		},
		{
			"bufferView":39,
			"componentType":5126,
			"count":76,
			"type":"VEC3"
		},
		{
			"bufferView":40,
			"componentType":5126,
			"count":76,
			"type":"VEC2"
		},
		{
			"bufferView":41,
			"componentType":5126,
			"count":76,
			"type":"VEC4"
		},
		{
			"bufferView":42,
			"componentType":5123,
			"count":228,
			"type":"SCALAR"
		},
		{
			"bufferView":43,
			"componentType":5126,
			"count":165,
			"max":[
				6.2900519371032715,
				5.073637008666992,
				-26.709949493408203
			],
			"min":[
				5.70994758605957,
				0,
				-27.290054321289062
			],
			"type":"VEC3"
		},
		{
			"bufferView":44,
			"componentType":5126,
			"count":165,
			"type":"VEC3"
		},
		{
			"bufferView":45,
			"componentType":5126,
			"count":165,
			"type":"VEC2"
		},
		{
			"bufferView":46,
			"componentType":5126,
			"count":165,
			"type":"VEC4"
		},
		{
			"bufferView":47,
			"componentType":5126,
			"count":165,
			"max":[
				6.2900519371032715,
				5.073637008666992,
				-44.70994567871094
			],
			"min":[
				5.70994758605957,
				0,
				-45.29005432128906
			],
			"type":"VEC3"
		},
		{
			"bufferView":48,
			"componentType":5126,
			"count":165,
			"type":"VEC3"
		},
		{
			"bufferView":49,
			"componentType":5126,
			"count":165,
			"type":"VEC2"
		},
		{
			"bufferView":50,
			"componentType":5126,
			"count":165,
			"type":"VEC4"
		},
		{
			"bufferView":51,
			"componentType":5126,
			"count":11698,
			"max":[
				-1.8171577453613281,
				5.64389181137085,
				-30.760725021362305
			],
			"min":[
				-13.083745956420898,
				0.005019587464630604,
				-42.03199768066406
			],
			"type":"VEC3"
		},
		{
			"bufferView":52,
			"componentType":5126,
			"count":11698,
			"type":"VEC3"
		},
		{
			"bufferView":53,
			"componentType":5126,
			"count":11698,
			"type":"VEC2"
		},
		{
			"bufferView":54,
			"componentType":5126,
			"count":11698,
			"type":"VEC4"
		},
		{
			"bufferView":55,
			"componentType":5123,
			"count":11754,
			"type":"SCALAR"
		},
		{
			"bufferView":56,
			"componentType":5126,
			"count":120,
			"max":[
				12.224141120910645,
				5.621074676513672,
				-32.99616241455078
			],
			"min":[
				6.599783897399902,
				-0.003282785415649414,
				-38.620521545410156
			],
			"type":"VEC3"
		},
		{
			"bufferView":57,
			"componentType":5126,
			"count":120,
			"type":"VEC3"
		},
		{
			"bufferView":58,
			"componentType":5126,
			"count":120,
			"type":"VEC2"
		},
		{
			"bufferView":59,
			"componentType":5126,
			"count":120,
			"type":"VEC4"
		},
		{
			"bufferView":60,
			"componentType":5123,
			"count":564,
			"type":"SCALAR"
		},
		{
			"bufferView":61,
			"componentType":5126,
			"count":120,
			"max":[
				21.331506729125977,
				8.375574111938477,
				21.33150291442871
			],
			"min":[
				-21.331506729125977,
				-0.49695682525634766,
				-57.34122848510742
			],
			"type":"VEC3"
		},
		{
			"bufferView":62,
			"componentType":5126,
			"count":120,
			"type":"VEC3"
		},
		{
			"bufferView":63,
			"componentType":5126,
			"count":120,
			"type":"VEC2"
		},
		{
			"bufferView":64,
			"componentType":5126,
			"count":120,
			"type":"VEC4"
		},
		{
			"bufferView":65,
			"componentType":5123,
			"count":180,
			"type":"SCALAR"
		}
	],
	"bufferViews":[
		{
			"buffer":0,
			"byteLength":13860,
			"byteOffset":0,
			"target":34962
		},
		{
			"buffer":0,
			"byteLength":13860,
			"byteOffset":13860,
			"target":34962
		},
		{
			"buffer":0,
			"byteLength":9240,
			"byteOffset":27720,
			"target":34962
		},
		{
			"buffer":0,
			"byteLength":18480,
			"byteOffset":36960,
			"target":34962
		},
		{
			"buffer":0,
			"byteLength":12012,
			"byteOffset":55440,
			"target":34963
		},
		{
			"buffer":0,
			"byteLength":1980,
			"byteOffset":67452,
			"target":34962
		},
		{
			"buffer":0,
			"byteLength":1980,
			"byteOffset":69432,
			"target":34962
		},
		{
			"buffer":0,
			"byteLength":1320,
			"byteOffset":71412,
			"target":34962
		},
		{
			"buffer":0,
			"byteLength":2640,
			"byteOffset":72732,
			"target":34962
		},
		{
			"buffer":0,
			"byteLength":1716,
			"byteOffset":75372,
			"target":34963
		},
		{
			"buffer":0,
			"byteLength":1980,
			"byteOffset":77088,
			"target":34962
		},
		{
			"buffer":0,
			"byteLength":1980,
			"byteOffset":79068,
			"target":34962
		},
		{
			"buffer":0,
			"byteLength":1320,
			"byteOffset":81048,
			"target":34962
		},
		{
			"buffer":0,
			"byteLength":2640,
			"byteOffset":82368,
			"target":34962
		},
		{
			"buffer":0,
			"byteLength":1980,
			"byteOffset":85008,
			"target":34962
		},
		{
			"buffer":0,
			"byteLength":1980,
			"byteOffset":86988,
			"target":34962
		},
		{
			"buffer":0,
			"byteLength":1320,
			"byteOffset":88968,
			"target":34962
		},
		{
			"buffer":0,
			"byteLength":2640,
			"byteOffset":90288,
			"target":34962
		},
		{
			"buffer":0,
			"byteLength":7500,
			"byteOffset":92928,
			"target":34962
		},
		{
			"buffer":0,
			"byteLength":7500,
			"byteOffset":100428,
			"target":34962
		},
		{
			"buffer":0,
			"byteLength":5000,
			"byteOffset":107928,
			"target":34962
		},
		{
			"buffer":0,
			"byteLength":10000,
			"byteOffset":112928,
			"target":34962
		},
		{
			"buffer":0,
			"byteLength":5760,
			"byteOffset":122928,
			"target":34963
		},
		{
			"buffer":0,
			"byteLength":3000,
			"byteOffset":128688,
			"target":34962
		},
		{
			"buffer":0,
			"byteLength":3000,
			"byteOffset":131688,
			"target":34962
		},
		{
			"buffer":0,
			"byteLength":2000,
			"byteOffset":134688,
			"target":34962
		},
		{
			"buffer":0,
			"byteLength":4000,
			"byteOffset":136688,
			"target":34962
		},
		{
			"buffer":0,
			"byteLength":2304,
			"byteOffset":140688,
			"target":34963
		},
		{
			"buffer":0,
			"byteLength":4500,
			"byteOffset":142992,
			"target":34962
		},
		{
			"buffer":0,
			"byteLength":4500,
			"byteOffset":147492,
			"target":34962
		},
		{
			"buffer":0,
			"byteLength":3000,
			"byteOffset":151992,
			"target":34962
		},
		{
			"buffer":0,
			"byteLength":6000,
			"byteOffset":154992,
			"target":34962
		},
		{
			"buffer":0,
			"byteLength":3456,
			"byteOffset":160992,
			"target":34963
		},
		{
			"buffer":0,
			"byteLength":3168,
			"byteOffset":164448,
			"target":34962
		},
		{
			"buffer":0,
			"byteLength":3168,
			"byteOffset":167616,
			"target":34962
		},
		{
			"buffer":0,
			"byteLength":2112,
			"byteOffset":170784,
			"target":34962
		},
		{
			"buffer":0,
			"byteLength":4224,
			"byteOffset":172896,
			"target":34962
		},
		{
			"buffer":0,
			"byteLength":792,
			"byteOffset":177120,
			"target":34963
		},
		{
			"buffer":0,
			"byteLength":912,
			"byteOffset":177912,
			"target":34962
		},
		{
			"buffer":0,
			"byteLength":912,
			"byteOffset":178824,
			"target":34962
		},
		{
			"buffer":0,
			"byteLength":608,
			"byteOffset":179736,
			"target":34962
		},
		{
			"buffer":0,
			"byteLength":1216,
			"byteOffset":180344,
			"target":34962
		},
		{
			"buffer":0,
			"byteLength":456,
			"byteOffset":181560,
			"target":34963
		},
		{
			"buffer":0,
			"byteLength":1980,
			"byteOffset":182016,
			"target":34962
		},
		{
			"buffer":0,
			"byteLength":1980,
			"byteOffset":183996,
			"target":34962
		},
		{
			"buffer":0,
			"byteLength":1320,
			"byteOffset":185976,
			"target":34962
		},
		{
			"buffer":0,
			"byteLength":2640,
			"byteOffset":187296,
			"target":34962
		},
		{
			"buffer":0,
			"byteLength":1980,
			"byteOffset":189936,
			"target":34962
		},
		{
			"buffer":0,
			"byteLength":1980,
			"byteOffset":191916,
			"target":34962
		},
		{
			"buffer":0,
			"byteLength":1320,
			"byteOffset":193896,
			"target":34962
		},
		{
			"buffer":0,
			"byteLength":2640,
			"byteOffset":195216,
			"target":34962
		},
		{
			"buffer":0,
			"byteLength":140376,
			"byteOffset":197856,
			"target":34962
		},
		{
			"buffer":0,
			"byteLength":140376,
			"byteOffset":338232,
			"target":34962
		},
		{
			"buffer":0,
			"byteLength":93584,
			"byteOffset":478608,
			"target":34962
		},
		{
			"buffer":0,
			"byteLength":187168,
			"byteOffset":572192,
			"target":34962
		},
		{
			"buffer":0,
			"byteLength":23508,
			"byteOffset":759360,
			"target":34963
		},
		{
			"buffer":0,
			"byteLength":1440,
			"byteOffset":782868,
			"target":34962
		},
		{
			"buffer":0,
			"byteLength":1440,
			"byteOffset":784308,
			"target":34962
		},
		{
			"buffer":0,
			"byteLength":960,
			"byteOffset":785748,
			"target":34962
		},
		{
			"buffer":0,
			"byteLength":1920,
			"byteOffset":786708,
			"target":34962
		},
		{
			"buffer":0,
			"byteLength":1128,
			"byteOffset":788628,
			"target":34963
		},
		{
			"buffer":0,
			"byteLength":1440,
			"byteOffset":789756,
			"target":34962
		},
		{
			"buffer":0,
			"byteLength":1440,
			"byteOffset":791196,
			"target":34962
		},
		{
			"buffer":0,
			"byteLength":960,
			"byteOffset":792636,
			"target":34962
		},
		{
			"buffer":0,
			"byteLength":1920,
			"byteOffset":793596,
			"target":34962
		},
		{
			"buffer":0,
			"byteLength":360,
			"byteOffset":795516,
			"target":34963
		}
	],
	"samplers":[
		{
			"magFilter":9729,
			"minFilter":9987
		}
	],
	"buffers":[
		{
			"byteLength":795876,
			"uri":"testroom.bin"
		}
	]
}
