{
	"asset":{
		"generator":"Khronos glTF Blender I/O v5.0.21",
		"version":"2.0"
	},
	"extensionsUsed":[
		"KHR_materials_emissive_strength"
	],
	"scene":0,
	"scenes":[
		{
			"name":"Scene",
			"nodes":[
				0,
				1,
				2,
				3,
				4,
				5,
				6
			]
		}
	],
	"nodes":[
		{
			"mesh":0,
			"name":"pillar1"
		},
		{
			"mesh":1,
			"name":"pillar4"
		},
		{
			"mesh":2,
			"name":"pillar3"
		},
		{
			"mesh":3,
			"name":"pillar2"
		},
		{
			"mesh":4,
			"name":"room"
		},
		{
			"mesh":5,
			"name":"axis-3d"
		},
		{
			"mesh":6,
			"name":"measure-stick"
		}
	],
	"materials":[
		{
			"doubleSided":true,
			"name":"pillar",
			"pbrMetallicRoughness":{
				"baseColorTexture":{
					"index":0
				},
				"metallicFactor":0,
				"roughnessFactor":0.8684210777282715
			}
		},
		{
			"doubleSided":true,
			"name":"walls",
			"normalTexture":{
				"index":1
			},
			"pbrMetallicRoughness":{
				"baseColorTexture":{
					"index":2
				},
				"metallicFactor":0,
				"metallicRoughnessTexture":{
					"index":3
				}
			}
		},
		{
			"doubleSided":true,
			"name":"axes",
			"pbrMetallicRoughness":{
				"baseColorFactor":[
					0.13074398040771484,
					0.8003076910972595,
					0.07355914264917374,
					1
				],
				"metallicFactor":0,
				"roughnessFactor":0.5
			}
		},
		{
			"doubleSided":true,
			"name":"X",
			"pbrMetallicRoughness":{
				"baseColorFactor":[
					1,
					0.10000000149011612,
					0.10000000149011612,
					1
				],
				"metallicFactor":0,
				"roughnessFactor":0.5
			}
		},
		{
			"doubleSided":true,
			"name":"Z",
			"pbrMetallicRoughness":{
				"baseColorFactor":[
					0,
					0.2698128819465637,
					1,
					1
				],
				"metallicFactor":0,
				"roughnessFactor":0.5
			}
		},
		{
			"doubleSided":true,
			"emissiveFactor":[
				1,
				1,
				1
			],
			"extensions":{
				"KHR_materials_emissive_strength":{
					"emissiveStrength":20
				}
			},
			"name":"measure-stick",
			"pbrMetallicRoughness":{
				"baseColorFactor":[
					0.8010088205337524,
					0.7942564487457275,
					0.23605450987815857,
					1
				],
				"metallicFactor":0,
				"roughnessFactor":0.5
			}
		}
	],
	"meshes":[
		{
			"name":"Cylinder",
			"primitives":[
				{
					"attributes":{
						"POSITION":0,
						"NORMAL":1,
						"TEXCOORD_0":2,
						"TANGENT":3
					},
					"indices":4,
					"material":0
				}
			]
		},
		{
			"name":"Cylinder.003",
			"primitives":[
				{
					"attributes":{
						"POSITION":5,
						"NORMAL":6,
						"TEXCOORD_0":7,
						"TANGENT":8
					},
					"indices":9,
					"material":0
				}
			]
		},
		{
			"name":"Cylinder.002",
			"primitives":[
				{
					"attributes":{
						"POSITION":10,
						"NORMAL":11,
						"TEXCOORD_0":12,
						"TANGENT":13
					},
					"indices":9,
					"material":0
				}
			]
		},
		{
			"name":"Cylinder.001",
			"primitives":[
				{
					"attributes":{
						"POSITION":14,
						"NORMAL":15,
						"TEXCOORD_0":16,
						"TANGENT":17
					},
					"indices":9,
					"material":0
				}
			]
		},
		{
			"name":"Cube",
			"primitives":[
				{
					"attributes":{
						"POSITION":18,
						"NORMAL":19,
						"TEXCOORD_0":20,
						"TANGENT":21
					},
					"indices":22,
					"material":1
				}
			]
		},
		{
			"name":"Cube.002",
			"primitives":[
				{
					"attributes":{
						"POSITION":23,
						"NORMAL":24,
						"TEXCOORD_0":25,
						"TANGENT":26
					},
					"indices":27,
					"material":2
				},
				{
					"attributes":{
						"POSITION":28,
						"NORMAL":29,
						"TEXCOORD_0":30,
						"TANGENT":31
					},
					"indices":32,
					"material":3
				},
				{
					"attributes":{
						"POSITION":33,
						"NORMAL":34,
						"TEXCOORD_0":35,
						"TANGENT":36
					},
					"indices":37,
					"material":4
				}
			]
		},
		{
			"name":"Cube.001",
			"primitives":[
				{
					"attributes":{
						"POSITION":38,
						"NORMAL":39,
						"TEXCOORD_0":40,
						"TANGENT":41
					},
					"indices":42,
					"material":5
				}
			]
		}
	],
	"textures":[
		{
			"sampler":0,
			"source":0
		},
		{
			"sampler":0,
			"source":1
		},
		{
			"sampler":0,
			"source":2
		},
		{
			"sampler":0,
			"source":3
		}
	],
	"images":[
		{
			"mimeType":"image/png",
			"name":"bricks.png",
			"uri":"../../textures/bricks.png"
		},
		{
			"mimeType":"image/png",
			"name":"rocks-1k-normal.png",
			"uri":"../../../../strain/SOURCE-TEXTURES/rocks-1k-normal.png"
		},
		{
			"mimeType":"image/png",
			"name":"rocks-1k-diffuse.png",
			"uri":"../../../../strain/SOURCE-TEXTURES/rocks-1k-diffuse.png"
		},
		{
			"mimeType":"image/png",
			"name":"rocks-1k-specular.png",
			"uri":"../../../../strain/SOURCE-TEXTURES/rocks-1k-specular.png"
		}
	],
	"accessors":[
		{
			"bufferView":0,
			"componentType":5126,
			"count":1155,
			"max":[
				0.8336291313171387,
				5.073637008666992,
				15.067896842956543
			],
			"min":[
				-6.29005241394043,
				-0.4281679689884186,
				8.70994758605957
			],
			"type":"VEC3"
		},
		{
			"bufferView":1,
			"componentType":5126,
			"count":1155,
			"type":"VEC3"
		},
		{
			"bufferView":2,
			"componentType":5126,
			"count":1155,
			"type":"VEC2"
		},
		{
			"bufferView":3,
			"componentType":5126,
			"count":1155,
			"type":"VEC4"
		},
		{
			"bufferView":4,
			"componentType":5123,
			"count":5376,
			"type":"SCALAR"
		},
		{
			"bufferView":5,
			"componentType":5126,
			"count":165,
			"max":[
				-5.7099480628967285,
				5.073637008666992,
				-8.70994758605957
			],
			"min":[
				-6.29005241394043,
				-0.27981412410736084,
				-9.29005241394043
			],
			"type":"VEC3"
		},
		{
			"bufferView":6,
			"componentType":5126,
			"count":165,
			"type":"VEC3"
		},
		{
			"bufferView":7,
			"componentType":5126,
			"count":165,
			"type":"VEC2"
		},
		{
			"bufferView":8,
			"componentType":5126,
			"count":165,
			"type":"VEC4"
		},
		{
			"bufferView":9,
			"componentType":5123,
			"count":768,
			"type":"SCALAR"
		},
		{
			"bufferView":10,
			"componentType":5126,
			"count":165,
			"max":[
				6.2900519371032715,
				5.073637008666992,
				9.290051460266113
			],
			"min":[
				5.70994758605957,
				-0.224470853805542,
				8.709946632385254
			],
			"type":"VEC3"
		},
		{
			"bufferView":11,
			"componentType":5126,
			"count":165,
			"type":"VEC3"
		},
		{
			"bufferView":12,
			"componentType":5126,
			"count":165,
			"type":"VEC2"
		},
		{
			"bufferView":13,
			"componentType":5126,
			"count":165,
			"type":"VEC4"
		},
		{
			"bufferView":14,
			"componentType":5126,
			"count":165,
			"max":[
				6.2900519371032715,
				5.073637008666992,
				-8.70994758605957
			],
			"min":[
				5.70994758605957,
				-0.3518088161945343,
				-9.29005241394043
			],
			"type":"VEC3"
		},
		{
			"bufferView":15,
			"componentType":5126,
			"count":165,
			"type":"VEC3"
		},
		{
			"bufferView":16,
			"componentType":5126,
			"count":165,
			"type":"VEC2"
		},
		{
			"bufferView":17,
			"componentType":5126,
			"count":165,
			"type":"VEC4"
		},
		{
			"bufferView":18,
			"componentType":5126,
			"count":99,
			"max":[
				20,
				5.072525978088379,
				20
			],
			"min":[
				-20,
				-0.19031815230846405,
				-56.0731201171875
			],
			"type":"VEC3"
		},
		{
			"bufferView":19,
			"componentType":5126,
			"count":99,
			"type":"VEC3"
		},
		{
			"bufferView":20,
			"componentType":5126,
			"count":99,
			"type":"VEC2"
		},
		{
			"bufferView":21,
			"componentType":5126,
			"count":99,
			"type":"VEC4"
		},
		{
			"bufferView":22,
			"componentType":5123,
			"count":228,
			"type":"SCALAR"
		},
		{
			"bufferView":23,
			"componentType":5126,
			"count":625,
			"max":[
				6.60926628112793,
				4.954402923583984,
				3.200601100921631
			],
			"min":[
				2.9768903255462646,
				0.5111232399940491,
				-0.08322744071483612
			],
			"type":"VEC3"
		},
		{
			"bufferView":24,
			"componentType":5126,
			"count":625,
			"type":"VEC3"
		},
		{
			"bufferView":25,
			"componentType":5126,
			"count":625,
			"type":"VEC2"
		},
		{
			"bufferView":26,
			"componentType":5126,
			"count":625,
			"type":"VEC4"
		},
		{
			"bufferView":27,
			"componentType":5123,
			"count":2880,
			"type":"SCALAR"
		},
		{
			"bufferView":28,
			"componentType":5126,
			"count":250,
			"max":[
				7.925329685211182,
				1.0338404178619385,
				0.08322744071483612
			],
			"min":[
				7.046379566192627,
				0.15489137172698975,
				-0.08322744071483612
			],
			"type":"VEC3"
		},
		{
			"bufferView":29,
			"componentType":5126,
			"count":250,
			"type":"VEC3"
		},
		{
			"bufferView":30,
			"componentType":5126,
			"count":250,
			"type":"VEC2"
		},
		{
			"bufferView":31,
			"componentType":5126,
			"count":250,
			"type":"VEC4"
		},
		{
			"bufferView":32,
			"componentType":5123,
			"count":1152,
			"type":"SCALAR"
		},
		{
			"bufferView":33,
			"componentType":5126,
			"count":375,
			"max":[
				4.074501037597656,
				0.6775935292243958,
				4.831238269805908
			],
			"min":[
				3.1079351902008057,
				0.5111384391784668,
				3.6498661041259766
			],
			"type":"VEC3"
		},
		{
			"bufferView":34,
			"componentType":5126,
			"count":375,
			"type":"VEC3"
		},
		{
			"bufferView":35,
			"componentType":5126,
			"count":375,
			"type":"VEC2"
		},
		{
			"bufferView":36,
			"componentType":5126,
			"count":375,
			"type":"VEC4"
		},
		{
			"bufferView":37,
			"componentType":5123,
			"count":1728,
			"type":"SCALAR"
		},
		{
			"bufferView":38,
			"componentType":5126,
			"count":264,
			"max":[
				0.10000002384185791,
				2.206502914428711,
				3.5590429306030273
			],
			"min":[
				-20.10000228881836,
				-0.05998179316520691,
				-3.5590429306030273
			],
			"type":"VEC3"
		},
		{
			"bufferView":39,
			"componentType":5126,
			"count":264,
			"type":"VEC3"
		},
		{
			"bufferView":40,
			"componentType":5126,
			"count":264,
			"type":"VEC2"
		},
		{
			"bufferView":41,
			"componentType":5126,
			"count":264,
			"type":"VEC4"
		},
		{
			"bufferView":42,
			"componentType":5123,
			"count":396,
			"type":"SCALAR"
		}
	],
	"bufferViews":[
		{
			"buffer":0,
			"byteLength":13860,
			"byteOffset":0,
			"target":34962
		},
		{
			"buffer":0,
			"byteLength":13860,
			"byteOffset":13860,
			"target":34962
		},
		{
			"buffer":0,
			"byteLength":9240,
			"byteOffset":27720,
			"target":34962
		},
		{
			"buffer":0,
			"byteLength":18480,
			"byteOffset":36960,
			"target":34962
		},
		{
			"buffer":0,
			"byteLength":10752,
			"byteOffset":55440,
			"target":34963
		},
		{
			"buffer":0,
			"byteLength":1980,
			"byteOffset":66192,
			"target":34962
		},
		{
			"buffer":0,
			"byteLength":1980,
			"byteOffset":68172,
			"target":34962
		},
		{
			"buffer":0,
			"byteLength":1320,
			"byteOffset":70152,
			"target":34962
		},
		{
			"buffer":0,
			"byteLength":2640,
			"byteOffset":71472,
			"target":34962
		},
		{
			"buffer":0,
			"byteLength":1536,
			"byteOffset":74112,
			"target":34963
		},
		{
			"buffer":0,
			"byteLength":1980,
			"byteOffset":75648,
			"target":34962
		},
		{
			"buffer":0,
			"byteLength":1980,
			"byteOffset":77628,
			"target":34962
		},
		{
			"buffer":0,
			"byteLength":1320,
			"byteOffset":79608,
			"target":34962
		},
		{
			"buffer":0,
			"byteLength":2640,
			"byteOffset":80928,
			"target":34962
		},
		{
			"buffer":0,
			"byteLength":1980,
			"byteOffset":83568,
			"target":34962
		},
		{
			"buffer":0,
			"byteLength":1980,
			"byteOffset":85548,
			"target":34962
		},
		{
			"buffer":0,
			"byteLength":1320,
			"byteOffset":87528,
			"target":34962
		},
		{
			"buffer":0,
			"byteLength":2640,
			"byteOffset":88848,
			"target":34962
		},
		{
			"buffer":0,
			"byteLength":1188,
			"byteOffset":91488,
			"target":34962
		},
		{
			"buffer":0,
			"byteLength":1188,
			"byteOffset":92676,
			"target":34962
		},
		{
			"buffer":0,
			"byteLength":792,
			"byteOffset":93864,
			"target":34962
		},
		{
			"buffer":0,
			"byteLength":1584,
			"byteOffset":94656,
			"target":34962
		},
		{
			"buffer":0,
			"byteLength":456,
			"byteOffset":96240,
			"target":34963
		},
		{
			"buffer":0,
			"byteLength":7500,
			"byteOffset":96696,
			"target":34962
		},
		{
			"buffer":0,
			"byteLength":7500,
			"byteOffset":104196,
			"target":34962
		},
		{
			"buffer":0,
			"byteLength":5000,
			"byteOffset":111696,
			"target":34962
		},
		{
			"buffer":0,
			"byteLength":10000,
			"byteOffset":116696,
			"target":34962
		},
		{
			"buffer":0,
			"byteLength":5760,
			"byteOffset":126696,
			"target":34963
		},
		{
			"buffer":0,
			"byteLength":3000,
			"byteOffset":132456,
			"target":34962
		},
		{
			"buffer":0,
			"byteLength":3000,
			"byteOffset":135456,
			"target":34962
		},
		{
			"buffer":0,
			"byteLength":2000,
			"byteOffset":138456,
			"target":34962
		},
		{
			"buffer":0,
			"byteLength":4000,
			"byteOffset":140456,
			"target":34962
		},
		{
			"buffer":0,
			"byteLength":2304,
			"byteOffset":144456,
			"target":34963
		},
		{
			"buffer":0,
			"byteLength":4500,
			"byteOffset":146760,
			"target":34962
		},
		{
			"buffer":0,
			"byteLength":4500,
			"byteOffset":151260,
			"target":34962
		},
		{
			"buffer":0,
			"byteLength":3000,
			"byteOffset":155760,
			"target":34962
		},
		{
			"buffer":0,
			"byteLength":6000,
			"byteOffset":158760,
			"target":34962
		},
		{
			"buffer":0,
			"byteLength":3456,
			"byteOffset":164760,
			"target":34963
		},
		{
			"buffer":0,
			"byteLength":3168,
			"byteOffset":168216,
			"target":34962
		},
		{
			"buffer":0,
			"byteLength":3168,
			"byteOffset":171384,
			"target":34962
		},
		{
			"buffer":0,
			"byteLength":2112,
			"byteOffset":174552,
			"target":34962
		},
		{
			"buffer":0,
			"byteLength":4224,
			"byteOffset":176664,
			"target":34962
		},
		{
			"buffer":0,
			"byteLength":792,
			"byteOffset":180888,
			"target":34963
		}
	],
	"samplers":[
		{
			"magFilter":9729,
			"minFilter":9987
		}
	],
	"buffers":[
		{
			"byteLength":181680,
			"uri":"testroom.bin"
		}
	]
}
