{
	"asset":{
		"generator":"Khronos glTF Blender I/O v4.3.47",
		"version":"2.0"
	},
	"scene":0,
	"scenes":[
		{
			"name":"Scene",
			"nodes":[
				0,
				1
			]
		}
	],
	"nodes":[
		{
			"mesh":0,
			"name":"Cube",
			"translation":[
				0,
				1,
				-0.005582292564213276
			]
		},
		{
			"mesh":1,
			"name":"Cube.006"
		}
	],
	"materials":[
		{
			"doubleSided":true,
			"name":"Material",
			"normalTexture":{
				"index":0
			},
			"pbrMetallicRoughness":{
				"baseColorTexture":{
					"index":1
				},
				"metallicFactor":0
			}
		},
		{
			"doubleSided":true,
			"name":"Material.002",
			"pbrMetallicRoughness":{
				"baseColorFactor":[
					0.13074398040771484,
					0.8003076910972595,
					0.07355914264917374,
					1
				],
				"metallicFactor":0,
				"roughnessFactor":0.5
			}
		}
	],
	"meshes":[
		{
			"name":"Cube",
			"primitives":[
				{
					"attributes":{
						"POSITION":0,
						"NORMAL":1,
						"TEXCOORD_0":2,
						"TANGENT":3
					},
					"indices":4,
					"material":0
				}
			]
		},
		{
			"name":"Cube.002",
			"primitives":[
				{
					"attributes":{
						"POSITION":5,
						"NORMAL":6,
						"TEXCOORD_0":7,
						"TANGENT":8
					},
					"indices":9,
					"material":1
				}
			]
		}
	],
	"textures":[
		{
			"sampler":0,
			"source":0
		},
		{
			"sampler":0,
			"source":1
		}
	],
	"images":[
		{
			"mimeType":"image/png",
			"name":"rocks-1k-normal.png",
			"uri":"../../../../strain/data/texture/rocks-1k-normal.jxl"
		},
		{
			"mimeType":"image/png",
			"name":"rocks-1k-diffuse.png",
			"uri":"../../../../strain/data/texture/rocks-1k-diffuse.jxl"
		}
	],
	"accessors":[
		{
			"bufferView":0,
			"componentType":5126,
			"count":78,
			"max":[
				20,
				4.072525978088379,
				20
			],
			"min":[
				-20,
				-1,
				-20
			],
			"type":"VEC3"
		},
		{
			"bufferView":1,
			"componentType":5126,
			"count":78,
			"type":"VEC3"
		},
		{
			"bufferView":2,
			"componentType":5126,
			"count":78,
			"type":"VEC2"
		},
		{
			"bufferView":3,
			"componentType":5126,
			"count":78,
			"type":"VEC4"
		},
		{
			"bufferView":4,
			"componentType":5123,
			"count":234,
			"type":"SCALAR"
		},
		{
			"bufferView":5,
			"componentType":5126,
			"count":240,
			"max":[
				8.079447746276855,
				5.090725898742676,
				4.847148418426514
			],
			"min":[
				2.859788417816162,
				0.0007724761962890625,
				-0.09913855791091919
			],
			"type":"VEC3"
		},
		{
			"bufferView":6,
			"componentType":5126,
			"count":240,
			"type":"VEC3"
		},
		{
			"bufferView":7,
			"componentType":5126,
			"count":240,
			"type":"VEC2"
		},
		{
			"bufferView":8,
			"componentType":5126,
			"count":240,
			"type":"VEC4"
		},
		{
			"bufferView":9,
			"componentType":5123,
			"count":360,
			"type":"SCALAR"
		}
	],
	"bufferViews":[
		{
			"buffer":0,
			"byteLength":936,
			"byteOffset":0,
			"target":34962
		},
		{
			"buffer":0,
			"byteLength":936,
			"byteOffset":936,
			"target":34962
		},
		{
			"buffer":0,
			"byteLength":624,
			"byteOffset":1872,
			"target":34962
		},
		{
			"buffer":0,
			"byteLength":1248,
			"byteOffset":2496,
			"target":34962
		},
		{
			"buffer":0,
			"byteLength":468,
			"byteOffset":3744,
			"target":34963
		},
		{
			"buffer":0,
			"byteLength":2880,
			"byteOffset":4212,
			"target":34962
		},
		{
			"buffer":0,
			"byteLength":2880,
			"byteOffset":7092,
			"target":34962
		},
		{
			"buffer":0,
			"byteLength":1920,
			"byteOffset":9972,
			"target":34962
		},
		{
			"buffer":0,
			"byteLength":3840,
			"byteOffset":11892,
			"target":34962
		},
		{
			"buffer":0,
			"byteLength":720,
			"byteOffset":15732,
			"target":34963
		}
	],
	"samplers":[
		{
			"magFilter":9729,
			"minFilter":9987
		}
	],
	"buffers":[
		{
			"byteLength":16452,
			"uri":"testroom.bin"
		}
	]
}
