{
	"asset":{
		"generator":"Khronos glTF Blender I/O v5.2.39",
		"version":"2.0"
	},
	"scene":0,
	"scenes":[
		{
			"name":"Scene",
			"nodes":[
				0
			]
		}
	],
	"nodes":[
		{
			"mesh":0,
			"name":"pillar"
		}
	],
	"materials":[
		{
			"doubleSided":true,
			"name":"pillar.001",
			"pbrMetallicRoughness":{
				"baseColorFactor":[
					0.800000011920929,
					0.800000011920929,
					0.800000011920929,
					1
				]
			}
		}
	],
	"meshes":[
		{
			"name":"pillar",
			"primitives":[
				{
					"attributes":{
						"POSITION":0,
						"NORMAL":1,
						"TEXCOORD_0":2,
						"TANGENT":3
					},
					"indices":4,
					"material":0
				}
			]
		}
	],
	"accessors":[
		{
			"bufferView":0,
			"componentType":5126,
			"count":2961,
			"max":[
				1.1611770391464233,
				1.000004768371582,
				-0.8395713567733765
			],
			"min":[
				0.8422844409942627,
				-1.0000079870224,
				-1.1588377952575684
			],
			"type":"VEC3"
		},
		{
			"bufferView":1,
			"componentType":5126,
			"count":2961,
			"type":"VEC3"
		},
		{
			"bufferView":2,
			"componentType":5126,
			"count":2961,
			"type":"VEC2"
		},
		{
			"bufferView":3,
			"componentType":5126,
			"count":2961,
			"type":"VEC4"
		},
		{
			"bufferView":4,
			"componentType":5123,
			"count":2961,
			"type":"SCALAR"
		}
	],
	"bufferViews":[
		{
			"buffer":0,
			"byteLength":35532,
			"byteOffset":0,
			"target":34962
		},
		{
			"buffer":0,
			"byteLength":35532,
			"byteOffset":35532,
			"target":34962
		},
		{
			"buffer":0,
			"byteLength":23688,
			"byteOffset":71064,
			"target":34962
		},
		{
			"buffer":0,
			"byteLength":47376,
			"byteOffset":94752,
			"target":34962
		},
		{
			"buffer":0,
			"byteLength":5922,
			"byteOffset":142128,
			"target":34963
		}
	],
	"buffers":[
		{
			"byteLength":148052,
			"uri":"base-pillar.bin"
		}
	]
}
