{
	"asset":{
		"generator":"Khronos glTF Blender I/O v5.2.39",
		"version":"2.0"
	},
	"scene":0,
	"scenes":[
		{
			"name":"Scene",
			"nodes":[
				0
			]
		}
	],
	"nodes":[
		{
			"mesh":0,
			"name":"ceiling-turn"
		}
	],
	"materials":[
		{
			"doubleSided":true,
			"name":"ceiling",
			"pbrMetallicRoughness":{
				"baseColorFactor":[
					0.800000011920929,
					0.800000011920929,
					0.800000011920929,
					1
				],
				"metallicFactor":0,
				"roughnessFactor":0.5
			}
		}
	],
	"meshes":[
		{
			"name":"ceiling-turn",
			"primitives":[
				{
					"attributes":{
						"POSITION":0,
						"NORMAL":1,
						"TEXCOORD_0":2,
						"TANGENT":3
					},
					"indices":4,
					"material":0
				}
			]
		}
	],
	"accessors":[
		{
			"bufferView":0,
			"componentType":5126,
			"count":94,
			"max":[
				0.9999999403953552,
				1.3219999074935913,
				0.9980160593986511
			],
			"min":[
				-1.0000004768371582,
				1,
				-1
			],
			"type":"VEC3"
		},
		{
			"bufferView":1,
			"componentType":5126,
			"count":94,
			"type":"VEC3"
		},
		{
			"bufferView":2,
			"componentType":5126,
			"count":94,
			"type":"VEC2"
		},
		{
			"bufferView":3,
			"componentType":5126,
			"count":94,
			"type":"VEC4"
		},
		{
			"bufferView":4,
			"componentType":5123,
			"count":138,
			"type":"SCALAR"
		}
	],
	"bufferViews":[
		{
			"buffer":0,
			"byteLength":1128,
			"byteOffset":0,
			"target":34962
		},
		{
			"buffer":0,
			"byteLength":1128,
			"byteOffset":1128,
			"target":34962
		},
		{
			"buffer":0,
			"byteLength":752,
			"byteOffset":2256,
			"target":34962
		},
		{
			"buffer":0,
			"byteLength":1504,
			"byteOffset":3008,
			"target":34962
		},
		{
			"buffer":0,
			"byteLength":276,
			"byteOffset":4512,
			"target":34963
		}
	],
	"buffers":[
		{
			"byteLength":4788,
			"uri":"ceiling-turn.bin"
		}
	]
}
